<svg width="38" height="38" viewBox="0 0 38 38" fill="none" xmlns="http://www.w3.org/2000/svg">
<path d="M8.14118 19V11.8615C8.16238 10.4583 8.46025 9.07304 9.01773 7.78516C9.5752 6.49728 10.3813 5.33205 11.3899 4.35625C12.3985 3.38045 13.5897 2.61326 14.8953 2.09862C16.2009 1.58398 17.5952 1.33203 18.9983 1.35718C20.4015 1.33203 21.7958 1.58398 23.1014 2.09862C24.407 2.61326 25.5982 3.38045 26.6067 4.35625C27.6153 5.33205 28.4214 6.49728 28.9789 7.78516C29.5364 9.07304 29.8343 10.4583 29.8555 11.8615V19M24.4269 33.25C25.8666 33.25 27.2474 32.6781 28.2655 31.66C29.2835 30.642 29.8555 29.2612 29.8555 27.8215V21.7143M24.4269 33.25C24.4269 34.1499 24.0694 35.0129 23.4332 35.6492C22.7969 36.2854 21.9339 36.6429 21.034 36.6429H16.9626C16.0628 36.6429 15.1998 36.2854 14.5635 35.6492C13.9272 35.0129 13.5698 34.1499 13.5698 33.25C13.5698 32.3502 13.9272 31.4872 14.5635 30.8509C15.1998 30.2146 16.0628 29.8572 16.9626 29.8572H21.034C21.9339 29.8572 22.7969 30.2146 23.4332 30.8509C24.0694 31.4872 24.4269 32.3502 24.4269 33.25ZM4.06975 14.9286H6.78404C7.14398 14.9286 7.48917 15.0716 7.74368 15.3261C7.9982 15.5806 8.14118 15.9258 8.14118 16.2858V24.4286C8.14118 24.7885 7.9982 25.1337 7.74368 25.3883C7.48917 25.6428 7.14398 25.7858 6.78404 25.7858H4.06975C3.34988 25.7858 2.65949 25.4998 2.15046 24.9908C1.64144 24.4817 1.35547 23.7913 1.35547 23.0715V17.6429C1.35547 16.923 1.64144 16.2326 2.15046 15.7236C2.65949 15.2146 3.34988 14.9286 4.06975 14.9286ZM33.9269 25.7858H31.2126C30.8527 25.7858 30.5075 25.6428 30.253 25.3883C29.9985 25.1337 29.8555 24.7885 29.8555 24.4286V16.2858C29.8555 15.9258 29.9985 15.5806 30.253 15.3261C30.5075 15.0716 30.8527 14.9286 31.2126 14.9286H33.9269C34.6468 14.9286 35.3372 15.2146 35.8462 15.7236C36.3552 16.2326 36.6412 16.923 36.6412 17.6429V23.0715C36.6412 23.7913 36.3552 24.4817 35.8462 24.9908C35.3372 25.4998 34.6468 25.7858 33.9269 25.7858Z" stroke="white" stroke-width="2.71429" stroke-linecap="round" stroke-linejoin="round"/>
</svg>
